<?xml version="1.0" encoding="utf-8"?>
<!-- Svg Vector Icons : http://www.onlinewebfonts.com/icon -->
<!DOCTYPE svg PUBLIC "-//W3C//DTD SVG 1.1//EN" "http://www.w3.org/Graphics/SVG/1.1/DTD/svg11.dtd">
<svg version="1.1" xmlns="http://www.w3.org/2000/svg" xmlns:xlink="http://www.w3.org/1999/xlink" x="0px" y="0px" viewBox="0 0 256 256" enable-background="new 0 0 256 256" xml:space="preserve">
<metadata> Svg Vector Icons : http://www.onlinewebfonts.com/icon </metadata>
<g><g><g><path fill="#000000" d="M121.5,10.7c-6.3,1.3-13,5.7-16.9,11l-2.1,2.8l-9.7,0.2l-9.8,0.2L80,26.4c-4.1,2-6.9,4.6-9,8.7c-1,2-2.2,3.6-2.8,3.9c-0.6,0.3-4.4,0.5-9,0.5c-9.5,0-12.9,0.6-18.3,3.3c-7.6,3.8-13.7,11.6-15.4,20c-1,4.8-1,155.1,0,159.9c2.3,11,11.6,20.3,22.6,22.6c4.8,1,155.1,1,159.9,0c11-2.3,20.3-11.6,22.6-22.6c1-4.8,1-155.1,0-159.9c-1.7-8.4-7.8-16.2-15.4-20c-5.9-2.9-8.9-3.4-21.4-3.2c-10.2,0.1-10.7,0.2-12.9,1.3c-3,1.5-5.7,4.2-7.1,7.1c-1,2-1.1,3.2-1.3,9.3c-0.3,7.6-0.5,8.3-3.5,10.5c-1.2,1-1.7,1-39.6,1.1c-21.1,0.1-39,0-39.8-0.1c-0.8-0.1-2.3-1-3.4-1.8c-3.6-3-7.8-3.3-10.9-0.6c-2.2,1.9-2.9,3.5-2.9,6.1c0,4.1,2.4,7,7.8,9.6l3,1.4h45H173l3.5-1.7c4.2-2.1,6.8-4.8,8.8-9c1.3-2.9,1.4-3.5,1.7-9.9c0.3-9.2-0.3-8.8,10.6-8.5c7.5,0.1,8.3,0.2,10.4,1.3c2.9,1.4,5.7,4.2,7.1,7.1l1.2,2.3v77.7v77.7l-1.2,2.3c-1.4,3-4.2,5.7-7.1,7.1l-2.3,1.2H128H50.3l-3-1.7c-2-1.1-3.6-2.4-4.7-3.9c-3.4-4.5-3.2,1.8-3-83.7L39.7,65l1.2-2.3c1.4-3,4.2-5.7,7.1-7.1c2.2-1.1,2.8-1.2,14.1-1.4c11-0.2,11.9-0.3,14.1-1.3c3.1-1.4,6-4.3,7.7-7.7c1.4-3,2.4-4.2,3.9-5c0.6-0.3,4.3-0.6,9.7-0.8c7.8-0.2,9-0.4,11.1-1.3c2.7-1.2,5.2-3.5,7.4-6.8c1.7-2.5,3-3.6,6.2-5.3c1.7-0.9,2.8-1.1,6-1.1c3.2,0,4.3,0.2,6,1.1c3.2,1.7,4.6,2.9,6.2,5.3c2.1,3.2,5.2,5.9,7.9,7c1.9,0.7,3.5,0.9,10.9,0.9c8,0,8.7-0.1,9.9-1c2.4-1.8,3.2-3.3,3.2-6.2c0-2.9-0.7-4.4-3.2-6.2c-1.1-0.9-2-1-8.4-1.1l-7.1-0.1l-0.7-1.4c-0.4-0.8-2.3-2.9-4.1-4.7C141.5,11.5,131.4,8.6,121.5,10.7z"/><path fill="#000000" d="M73.4,113.8c-4.7,2-5.8,8.2-2.1,11.8c5.2,5.2,13.6,0.6,12.3-6.7C82.7,114.6,77.5,112,73.4,113.8z"/><path fill="#000000" d="M102.9,113.8c-3.1,1.3-4.8,4.9-4.2,8.3c0.4,2.2,2.7,4.7,4.8,5.3c1.2,0.4,14.1,0.5,40.3,0.4c38.1-0.1,38.6-0.1,39.8-1.1c2.4-1.8,3.2-3.3,3.2-6.2c0-2.9-0.7-4.4-3.2-6.2c-1.2-1-1.7-1-40.3-1.1C111.5,113.2,104,113.3,102.9,113.8z"/><path fill="#000000" d="M73.4,143.3c-4.7,2-5.8,8.2-2.1,11.8c3,3,7.2,3,10.2,0C87.2,149.5,80.8,140.1,73.4,143.3z"/><path fill="#000000" d="M102.9,143.3c-3.1,1.3-4.8,4.9-4.2,8.3c0.4,2.2,2.7,4.7,4.8,5.3c1.2,0.4,14.1,0.5,40.3,0.4c38.1-0.1,38.6-0.1,39.8-1.1c2.4-1.8,3.2-3.3,3.2-6.2s-0.7-4.4-3.2-6.2c-1.2-1-1.7-1-40.3-1.1C111.5,142.7,104,142.8,102.9,143.3z"/><path fill="#000000" d="M73.4,172.8c-4.7,2-5.8,8.2-2.1,11.8c3,3,7.2,3,10.2,0C87.2,179,80.8,169.6,73.4,172.8z"/><path fill="#000000" d="M102.9,172.8c-3.1,1.3-4.8,4.9-4.2,8.3c0.4,2.2,2.7,4.7,4.8,5.3c1.2,0.4,14.1,0.5,40.3,0.4c38.1-0.1,38.6-0.1,39.8-1.1c2.4-1.8,3.2-3.3,3.2-6.2s-0.7-4.4-3.2-6.2c-1.2-1-1.7-1-40.3-1.1C111.5,172.2,104,172.3,102.9,172.8z"/></g></g></g>
</svg>